PathFileType	4	(X/Y/Z)	/Users/itak/Documents/Research/Walk-IL/dataset/trc/00347_00011.trc
DataRate	CameraRate	NumFrames	NumMarkers	Units	OrigDataRate	OrigDataStartFrame	OrigNumFrames
100.000000	100.000000	4	53	mm	100.000000	91	732
Frame#	Time	RPSI			LPSI			STRN			T10			C7			CLAV			RBAK			LBAK			LSHO			LUPA			LAEL			LAOL			LWTS			LWPS			LFRA			LIFD			LHPS			LHTS			RSHO			RUPA			RAEL			RAOL			RWTS			RWPS			RFRA			RHTS			RHPS			RBHD			LFHD			RFHD			LBHD			LHIP			RHIP			RASI			LASI			LKNE			LTHI			LANK			LTIP			LTOE			LMT1			LMT5			LHEE			RKNE			RANK			RTIP			RTOE			RMT1			RMT5			RHEE			L3			RIFD			RTHI			
		X1	Y1	Z1	X2	Y2	Z2	X3	Y3	Z3	X4	Y4	Z4	X5	Y5	Z5	X6	Y6	Z6	X7	Y7	Z7	X8	Y8	Z8	X9	Y9	Z9	X10	Y10	Z10	X11	Y11	Z11	X12	Y12	Z12	X13	Y13	Z13	X14	Y14	Z14	X15	Y15	Z15	X16	Y16	Z16	X17	Y17	Z17	X18	Y18	Z18	X19	Y19	Z19	X20	Y20	Z20	X21	Y21	Z21	X22	Y22	Z22	X23	Y23	Z23	X24	Y24	Z24	X25	Y25	Z25	X26	Y26	Z26	X27	Y27	Z27	X28	Y28	Z28	X29	Y29	Z29	X30	Y30	Z30	X31	Y31	Z31	X32	Y32	Z32	X33	Y33	Z33	X34	Y34	Z34	X35	Y35	Z35	X36	Y36	Z36	X37	Y37	Z37	X38	Y38	Z38	X39	Y39	Z39	X40	Y40	Z40	X41	Y41	Z41	X42	Y42	Z42	X43	Y43	Z43	X44	Y44	Z44	X45	Y45	Z45	X46	Y46	Z46	X47	Y47	Z47	X48	Y48	Z48	X49	Y49	Z49	X50	Y50	Z50	X51	Y51	Z51	X52	Y52	Z52	X53	Y53	Z53	

92	0.91	517.9610595703125	953.5445556640625	991.6874389648438	511.2614135742188	963.5256958007812	1121.130249023438	275.8389892578125	1200.449096679688	1055.632080078125	518.3622436523438	1145.56103515625	1057.890747070312	464.95703125	1390.79638671875	1071.404418945312	310.7054138183594	1328.8095703125	1059.579223632812	525.2562866210938	1255.722290039062	1001.786437988281	470.7196044921875	1354.0869140625	1173.600830078125	382.00927734375	1370.17431640625	1226.050048828125	398.1311340332031	1251.825561523438	1296.7451171875	382.6330261230469	1046.097534179688	1310.207641601562	451.2147521972656	1034.463012695312	1262.021240234375	289.8298950195312	806.6902465820312	1253.520629882812	325.7364196777344	791.9419555664062	1310.204223632812	367.4412231445312	941.0902099609375	1314.647583007812	284.8503723144531	645.1954345703125	1241.149536132812	326.9884338378906	720.4244384765625	1300.825439453125	275.1084899902344	728.2164916992188	1265.092895507812	413.2308959960938	1375.587524414062	905.2369384765625	426.7430419921875	1311.365600585938	840.5233764648438	427.6437683105469	1044.394165039062	800.2064819335938	470.1947326660156	1034.984741210938	884.9170532226562	308.9756164550781	821.5181884765625	839.8514404296875	349.5969848632812	803.4921875	776.5119018554688	402.6476135253906	976.8711547851562	790.2628784179688	275.3584594726562	722.0435791015625	823.1797485351562	329.5895080566406	719.5621948242188	778.857177734375	438.2585144042969	1580.8330078125	977.2904052734375	251.1755523681641	1609.83203125	1066.581420898438	276.21923828125	1599.47412109375	969.2725830078125	428.0152282714844	1589.808227539062	1122.426879882812	429.8799743652344	917.9312133789062	1230.231567382812	438.7473449707031	901.268798828125	885.4640502929688	334.9900512695312	928.4866943359375	920.2247314453125	298.6953125	934.0565795898438	1158.259643554688	363.8275451660156	447.6743469238281	1202.396484375	365.9974365234375	589.203125	1215.136352539062	516.1578369140625	45.57047653198242	1190.64111328125	434.2190856933594	236.1138916015625	1205.354858398438	314.0975341796875	43.48556518554688	1120.449462890625	383.3524169921875	29.322021484375	1082.800170898438	389.77978515625	41.48356246948242	1196.900146484375	553.4664916992188	40.82329940795898	1124.025634765625	324.8832397460938	448.0801086425781	877.0414428710938	510.9375610351562	74.10031127929688	856.8043823242188	351.7539367675781	330.7777404785156	872.6475219726562	321.6200866699219	41.46209335327148	884.4618530273438	372.7605895996094	32.59136199951172	931.2813720703125	416.1318359375	49.13174819946289	823.3356323242188	557.8113403320312	76.22600555419922	907.64501953125	516.9611206054688	1025.633666992188	1052.296020507812	293.7253112792969	651.099609375	839.0427856445312	338.4559020996094	698.5930786132812	868.9053955078125	
93	0.92	517.8075561523438	950.812744140625	993.3350830078125	510.0818786621094	961.7540283203125	1122.929443359375	273.9222717285156	1198.752197265625	1055.768310546875	516.3817138671875	1145.056518554688	1059.8837890625	461.8070983886719	1390.081176757812	1073.177001953125	307.9762878417969	1327.27880859375	1060.09765625	523.4534301757812	1255.318969726562	1004.079528808594	466.9351501464844	1353.288696289062	1175.3720703125	377.6849975585938	1368.76171875	1227.172729492188	393.6904602050781	1250.456665039062	1297.94873046875	378.4760131835938	1044.739013671875	1312.214111328125	447.4453125	1033.043334960938	1264.584716796875	286.4035949707031	805.0345458984375	1255.586669921875	321.9479675292969	790.6122436523438	1312.490234375	363.4593811035156	939.67626953125	1316.860473632812	281.6098327636719	643.0418090820312	1244.18212890625	323.3808898925781	719.0643920898438	1303.27734375	271.7431945800781	727.0001831054688	1267.722534179688	411.4219055175781	1374.52099609375	906.4645385742188	425.7938842773438	1310.193237304688	841.94091796875	427.6932067871094	1043.128662109375	802.038818359375	469.5399169921875	1033.904418945312	887.1190795898438	308.0581970214844	820.9318237304688	841.3272094726562	349.1390075683594	802.41943359375	778.3571166992188	402.8212585449219	975.5304565429688	791.9476318359375	273.9333190917969	721.526611328125	824.6181030273438	328.6724243164062	718.554443359375	780.941650390625	435.5179138183594	1579.920776367188	978.8402099609375	247.5119934082031	1608.528198242188	1066.694946289062	273.4411315917969	1598.291748046875	969.5634155273438	423.8878173828125	1588.71826171875	1124.067993164062	428.2728881835938	917.0619506835938	1230.423828125	438.7191772460938	900.2347412109375	886.2352905273438	334.781982421875	927.3641967773438	920.7662963867188	297.6126403808594	933.1510009765625	1158.25634765625	361.2903442382812	447.0111389160156	1202.717407226562	363.3241271972656	588.6170654296875	1215.822143554688	516.1058959960938	45.57939910888672	1190.601440429688	432.6702575683594	235.5094451904297	1205.43359375	314.0570678710938	43.38594818115234	1120.489990234375	383.3019714355469	29.22150039672852	1082.699340820312	389.7506408691406	41.43508911132812	1196.848266601562	553.3859252929688	40.96567916870117	1124.000244140625	315.4581909179688	449.2339172363281	878.3583984375	509.468017578125	79.10625457763672	861.6060791015625	344.3387451171875	332.282958984375	874.4790649414062	321.0329895019531	41.2508544921875	884.1713256835938	370.9374389648438	32.96710205078125	932.274658203125	416.5814514160156	51.60277938842773	825.5037841796875	554.9640502929688	82.36003112792969	913.621826171875	517.0300903320312	1025.511108398438	1054.8212890625	291.7952575683594	650.5757446289062	840.925048828125	334.4753112792969	698.3833618164062	870.0792236328125	
94	0.93	517.482177734375	948.4876098632812	994.9439697265625	508.7770080566406	960.1002807617188	1124.675659179688	271.8380432128906	1197.246337890625	1055.785766601562	514.2753295898438	1144.617553710938	1061.873901367188	458.6240844726562	1389.416870117188	1074.836181640625	305.2137756347656	1325.8828125	1060.474243164062	521.5682983398438	1254.948120117188	1006.323486328125	463.085205078125	1352.566772460938	1177.022583007812	373.3053894042969	1367.462890625	1228.153930664062	389.1307373046875	1249.170043945312	1298.979858398438	374.1149597167969	1043.50439453125	1313.9951171875	443.4543762207031	1031.726684570312	1266.922241210938	282.7322082519531	803.4398193359375	1257.421997070312	318.0157470703125	789.3821411132812	1314.615844726562	359.2561340332031	938.3991088867188	1318.858642578125	278.2897033691406	640.9109497070312	1246.996459960938	319.6649169921875	717.8246459960938	1305.635009765625	268.281982421875	725.76806640625	1270.140991210938	409.6548156738281	1373.540283203125	907.5980834960938	424.9142761230469	1309.123779296875	843.2946166992188	427.7855834960938	1041.94873046875	803.8861083984375	468.8729553222656	1032.93115234375	889.3615112304688	307.2281188964844	820.3716430664062	842.7613525390625	348.7682495117188	801.4219970703125	780.1936645507812	403.0542602539062	974.2626953125	793.65380859375	272.6692199707031	721.0381469726562	826.018310546875	327.8899841308594	717.6195678710938	782.9752197265625	432.6398315429688	1579.131225585938	980.391357421875	243.7605285644531	1607.260864257812	1066.736694335938	270.5754089355469	1597.210693359375	969.7911987304688	419.6675109863281	1587.702270507812	1125.60791015625	426.3727111816406	916.37353515625	1230.637939453125	438.5514221191406	899.5875854492188	887.0283203125	334.4345397949219	926.6288452148438	921.3294677734375	296.23681640625	932.4263916015625	1158.274658203125	358.7601013183594	446.3820495605469	1202.767822265625	360.5841369628906	588.0003662109375	1216.271728515625	516.0517578125	45.61923217773438	1190.514770507812	431.1616821289062	234.9503173828125	1205.396118164062	314.0020141601562	43.292236328125	1120.520141601562	383.2447509765625	29.11444854736328	1082.591430664062	389.7217407226562	41.40927886962891	1196.77734375	553.302734375	41.12099075317383	1123.935913085938	306.2037353515625	450.8943786621094	879.4722900390625	507.5828552246094	84.46532440185547	866.8701782226562	336.8774719238281	334.1837768554688	876.2310180664062	320.163330078125	41.05211639404297	884.0855102539062	368.7827453613281	33.46480178833008	933.4722290039062	416.7934265136719	54.43794250488281	828.1085815429688	551.556640625	88.75437164306641	920.0848999023438	516.9312133789062	1025.362548828125	1057.2470703125	290.0195007324219	650.092041015625	842.7536010742188	330.6601867675781	698.57470703125	870.9984741210938	
95	0.9400000000000001	516.927001953125	946.6455078125	996.5098266601562	507.2968139648438	958.6292114257812	1126.357299804688	269.5583801269531	1195.9619140625	1055.686157226562	512.0847778320312	1144.254760742188	1063.885986328125	455.413330078125	1388.812377929688	1076.381958007812	302.4226989746094	1324.649047851562	1060.708984375	519.6052856445312	1254.622192382812	1008.502746582031	459.1744689941406	1351.936157226562	1178.566040039062	368.8787841796875	1366.31982421875	1228.990478515625	384.4479675292969	1248.015747070312	1299.847900390625	369.559814453125	1042.442016601562	1315.531982421875	439.2403259277344	1030.574340820312	1269.010620117188	278.8370971679688	801.9642944335938	1259.035400390625	313.9319458007812	788.2960815429688	1316.553466796875	354.8380737304688	937.3110961914062	1320.623291015625	274.8373107910156	638.9556274414062	1249.44677734375	315.8238830566406	716.7565307617188	1307.863647460938	264.6702575683594	724.4873046875	1272.235595703125	407.9408874511719	1372.6640625	908.6487426757812	424.0992126464844	1308.179321289062	844.5933837890625	427.905029296875	1040.885498046875	805.7490844726562	468.1784057617188	1032.088989257812	891.6383056640625	306.4810485839844	819.8511962890625	844.1419067382812	348.4855651855469	800.5226440429688	782.009521484375	403.334228515625	973.0968627929688	795.3822021484375	271.5916748046875	720.5919189453125	827.3717041015625	327.2603454589844	716.7796020507812	784.9454345703125	429.6234436035156	1578.467407226562	981.9374389648438	239.9254760742188	1606.03955078125	1066.693969726562	267.6243591308594	1596.232666015625	969.9463500976562	415.3592834472656	1586.775146484375	1127.037231445312	424.1471252441406	915.850341796875	1230.918212890625	438.2169494628906	899.32275390625	887.8489379882812	333.9202270507812	926.2756958007812	921.9201049804688	294.5356140136719	931.8668212890625	1158.359375	356.2914123535156	445.8039855957031	1202.590209960938	357.81396484375	587.3638916015625	1216.4833984375	515.9981079101562	45.67959976196289	1190.397705078125	429.7181396484375	234.4481658935547	1205.272705078125	313.9328918457031	43.20198059082031	1120.538452148438	383.1823120117188	29.01569175720215	1082.4892578125	389.6950073242188	41.4003791809082	1196.6923828125	553.2230224609375	41.28074264526367	1123.847290039062	297.1520385742188	452.9950561523438	880.3768920898438	505.1845092773438	90.03037261962891	872.5374145507812	329.3769226074219	336.4110412597656	877.8875122070312	318.8709411621094	40.87719345092773	884.2907104492188	366.1931457519531	34.12241744995117	934.9362182617188	416.5960388183594	57.57398223876953	831.2026977539062	547.5319213867188	95.23825836181641	926.9374389648438	516.5681762695312	1025.15478515625	1059.508056640625	288.4478759765625	649.6547241210938	844.5240478515625	327.1007080078125	699.0593872070312	871.683349609375	
